<?xml version="1.0" encoding="UTF-8"?>
<!-- Created with Inkscape (http://www.inkscape.org/) -->
<svg width="1536" height="1024" version="1.1" viewBox="0 0 1536 1024" xml:space="preserve" xmlns="http://www.w3.org/2000/svg"><g transform="matrix(1.104 0 0 1.104 -6.2424 25.789)"><g fill="#3ecbcb"><path d="m948.84 257.66c-16.58-17.909-16.677-41.864-0.24088-59.86l4.9637-5.4352-4.4637 0.71324c-11.307 1.8067-22.289 9.872-27.023 19.846-10.003 21.074 1.8708 45.084 24.56 49.663 7.9355 1.6014 8.0373 1.374 2.2046-4.9261z"/><path d="m1108.1 220.61v66h12.461c10.292 0 13.461-0.37264 18.191-2.1426 12.968-4.8521 20.113-17.438 19.129-33.693-0.6089-10.055-3.6025-16.92-9.8223-22.512-6.7756-6.0919-12.401-7.6523-27.574-7.6523zm12 10 4.75 6e-3c11.231 0.0132 18.026 4.7302 20.266 14.064 1.7193 7.1668 0.7843 16.762-2.1445 22.006-3.6789 6.5867-6.7417 8.3273-15.422 8.7656l-7.4492 0.37696v-22.61z"/><path d="m1054.1 220.61v66l16.75-0.0234c14.142-0.0185 17.373-0.30849 20.75-1.8672 9.5934-4.4276 13.022-13.955 8.5606-23.781-1.565-3.4469-3.2599-5.152-7.8457-7.8926-0.1558-0.0931 1.251-1.7022 3.125-3.5762 6.1713-6.1713 5.7838-16.669-0.8614-23.314-4.6959-4.6958-8.5843-5.5326-25.728-5.5391zm12 9.7871 8.0957 0.36914c7.4033 0.33621 8.3025 0.60549 10.5 3.1602 1.3218 1.5367 2.4043 3.9242 2.4043 5.3047 0 6.2876-4.7634 9.3789-14.451 9.3789h-6.5488v-9.1055zm0 28.213h8.4434c7.4727 0 8.7661 0.27555 11.236 2.4004 3.8772 3.335 3.8208 9.911-0.1133 13.295-2.3393 2.0122-3.7489 2.3047-11.123 2.3047h-8.4434v-9z"/><path d="m996.14 220.61v66h12v-24.105l10.293 0.60547 6.6035 11.721 6.6035 11.723 6.8223 0.0273 6.8242 0.0293-2.959-5.25c-9.844-17.466-11.262-20.226-10.516-20.479 3.1769-1.0742 7.6732-4.8383 10.025-8.3926 2.248-3.3971 2.8432-5.5527 3.1113-11.289 0.2987-6.3895 0.052-7.5139-2.4844-11.373-1.8427-2.8037-4.5235-5.1344-7.7656-6.75-4.6741-2.3292-5.8952-2.4668-21.756-2.4668zm12 10h9.5762c9.2517 0 9.6762 0.0981 12.5 2.9219 2.3933 2.3933 2.9238 3.7677 2.9238 7.5781 0 3.8104-0.5305 5.1829-2.9238 7.5762-2.8238 2.8238-3.2483 2.9238-12.5 2.9238h-9.5762v-10.5z"/><path d="m1383.1 249.04v-74.567l-2.25 0.71452c-5.2379 1.6634-83.198 24.701-131.75 38.934-28.875 8.4642-57.338 16.822-63.25 18.574l-10.75 3.1846v28.651l4.9226 1.4618c2.7074 0.80401 21.045 6.0445 40.75 11.646s58.552 16.72 86.327 24.708c71.417 20.54 73.36 21.09 74.75 21.181 0.9896 0.0643 1.25-15.456 1.25-74.486z"/><path d="m1147.1 204.66c-6.4325-9.17-14.327-17.431-21.969-22.99-3.8234-2.7809-7.196-5.0562-7.4947-5.0562s1.7651 3.0116 4.5863 6.6924c2.8213 3.6808 7.4363 11.331 10.256 17l5.1263 10.308h13.672z"/><path d="m1125.7 201.86c-5.248-10.395-12.444-20.77-19.423-28-4.4761-4.6377-5.5402-5.25-9.1235-5.25-2.231 0-4.0564 0.24293-4.0564 0.53984s0.8377 2.2094 1.8615 4.25c1.895 3.777 9.1385 25.241 11.123 32.96l1.0926 4.25h22.943z"/><path d="m1098.1 209.53c0-3.6961-7.4603-27.994-11.412-37.167-1.5098-3.5051-1.8973-3.75-5.9342-3.75h-4.3188l0.3171 5.25c0.1744 2.8875 0.5963 12.338 0.9376 21l0.6204 15.75h9.8947c6.4376 0 9.8947-0.37853 9.8947-1.0834z"/><path d="m1071.5 202.86c0.3201-4.2625 0.8671-13.712 1.2156-21l0.6335-13.25h-8.9101l-3.1559 8.0625c-3.2405 8.2787-9.1528 29.064-9.1555 32.187 0 1.5426 1.112 1.75 9.3944 1.75h9.3959z"/><path d="m1044.6 203.86c2.8528-10.648 8.173-26.694 10.333-31.164l1.9739-4.0856h-2.9589c-6.4767 0-12.76 5.9794-23.118 22-5.001 7.7351-10.742 18.139-10.742 19.467 0 0.29328 5.1083 0.53324 11.352 0.53324h11.352z"/><path d="m1014.7 205.36c3.7034-7.3936 9.1289-16.352 13.626-22.5 2.1124-2.8875 3.5674-5.25 3.2332-5.25-1.4186 0-12.42 9.2557-17.987 15.133-5.7695 6.0912-13.469 15.953-13.469 17.251 0 0.33881 2.6925 0.61602 5.9832 0.61602h5.9831z"/><path d="m1120.9 328.44c6.8379-4.7046 18.697-16.3 24.302-23.762 2.715-3.6144 4.9407-6.7982 4.946-7.0751 0.01-0.27689-3.2655-0.62919-7.2685-0.7829l-7.2782-0.27948-4.4718 9.1783c-2.4595 5.048-7.027 12.938-10.15 17.533-3.123 4.595-5.4541 8.3546-5.1802 8.3546s2.5692-1.425 5.1007-3.1667z"/><path d="m1029.1 323.36c-3.2556-4.5375-8.0166-12.412-10.58-17.5l-4.6607-9.25h-6.3739c-3.5056 0-6.3739 0.4005-6.3739 0.88999 0 1.4872 9.0043 13.244 14.926 19.489 4.2519 4.4839 17.264 14.621 18.768 14.621 0.118 0-2.4491-3.7125-5.7048-8.25z"/><path d="m1110.8 326.34c5.4463-7.2866 17.349-27.25 17.349-29.098 0-0.38312-4.9949-0.56934-11.1-0.41383l-11.1 0.28275-3.3354 11.5c-2.972 10.247-5.8838 19.108-7.9693 24.25-0.6239 1.5385-0.062 1.7475 4.6474 1.7295l5.3569-0.0205z"/><path d="m1089 326.68c2.9625-7.682 8.0884-25.859 8.0884-28.683 0-1.0882-2.0323-1.3905-9.3472-1.3905h-9.3472l-0.6482 11.25c-0.3566 6.1875-0.6503 14.738-0.6528 19v7.75h8.8547z"/><path d="m1072.6 320.86c-0.2941-7.5625-0.7731-16.112-1.0644-19l-0.5296-5.25h-19.015l0.6993 3.25c1.5495 7.2009 5.7354 20.551 8.6048 27.444l3.0415 7.3059h8.7982z"/><path d="m1055.8 333.36c-3.1722-7.2337-6.9928-18.114-9.318-26.536l-2.8398-10.286-11.254 0.14401c-6.1897 0.0792-11.254 0.2803-11.254 0.44687 0 0.68724 8.5412 15.339 11.577 19.859 1.8015 2.6825 5.6712 7.7191 8.5991 11.192 5.1635 6.1251 5.4698 6.3168 10.181 6.3726 3.5267 0.0418 4.7069-0.28481 4.3088-1.1924z"/><path d="m1215 453.18c10.897-4.2582 14.92-4.4222 23.911-0.97515 12.702 4.87 11.568 4.995 16.335-1.8004 3.0852-4.3983 3.6627-5.7193 2.1456-4.9073-3.3008 1.7665-6.6137 1.3266-14.932-1.9828-12.428-4.9447-15.984-4.9257-28.329 0.15143-14.36 5.9059-18.885 5.8967-32.447-0.0656-13.444-5.9101-19.572-6.0457-30.472-0.67424-4.1095 2.0252-8.3245 3.6822-9.3667 3.6822-1.477 0-1.7619 0.49614-1.2918 2.25 0.3316 1.2375 0.6091 3.5363 0.6166 5.1084 0.012 2.6083 0.2542 2.8011 2.7636 2.2039 1.5125-0.35999 6.0415-2.2621 10.064-4.2269 9.0363-4.4133 14.065-4.2819 25.186 0.65836 4.125 1.8324 8.85 3.6906 10.5 4.1293 5.8828 1.5641 15.777 0.17614 25.316-3.5513z"/><path d="m969.64 456.52c2.2-0.59538 7.5466-2.6698 11.881-4.6098 11.074-4.9559 16.42-4.6763 27.769 1.4525 0.3575 0.19309 0.8075-1.8977 1-4.6462l0.3498-4.9972-4.9188-2.3028c-8.0175-3.7535-16.048-3.2512-26.581 1.6625-7.0227 3.2762-9.8215 4.032-16.103 4.3492-7.0996 0.35847-8.292 0.10039-18-3.8959-13.807-5.6836-19.044-5.7855-30.523-0.59386-8.2342 3.7242-13.831 4.5714-17.44 2.64-2.8675-1.5347-2.3878-0.24732 2.145 5.7564 3.8103 5.0466 4.2883 5.3571 7.25 4.708 1.7439-0.38222 6.6187-2.2101 10.833-4.062 8.9988-3.9546 14.324-4.2657 20.838-1.2176 13.012 6.0884 23.316 7.9716 31.5 5.7568z"/><path d="m979.14 484.24c10.555-4.4629 16.493-4.7536 22.852-1.1186 2.3937 1.3684 4.5312 2.488 4.75 2.488 0.2189 0 0.3979-2.4378 0.3979-5.4173v-5.4173l-4.75-1.8274c-7.2298-2.7814-15.302-2.3033-23.75 1.4067-14.616 6.4186-18.342 6.4734-35.588 0.52375l-10.588-3.6529-6.6617 1.8032c-3.6639 0.99177-6.6617 2.0693-6.6617 2.3946s1.3813 2.0165 3.0695 3.7583c2.7159 2.8021 3.5562 3.1121 7.2943 2.6907 3.1701-0.35731 6.8351 0.43646 14.68 3.1795 9.4724 3.3119 11.208 3.6147 18.456 3.2192 6.294-0.34346 9.8126-1.203 16.5-4.0306z"/><path d="m1202.6 488.22c2.75-0.75159 7.4444-2.347 10.432-3.5453 3.9137-1.5697 6.4876-2.0004 9.2081-1.5408 3.2781 0.55383 4.3213 0.19985 7.9099-2.6841l4.1339-3.322-3.133-1.2784c-1.7231-0.70311-5.702-1.5455-8.8419-1.872-4.8005-0.49914-6.7433-0.16005-12.209 2.1308-4.3311 1.8154-9.0025 2.8898-14 3.2202-6.9778 0.4612-8.1265 0.2335-16.5-3.2708-12.176-5.0956-18.21-5.1771-28-0.37836-7.3704 3.6126-8.6555 5.6332-6.79 10.676 0.8002 2.1632 0.8188 2.1604 8.296-1.2701 9.3969-4.3111 13.519-4.3856 23.106-0.41741 12.429 5.1442 17.878 5.8777 26.388 3.5522z"/></g><g><g fill="#5b29c7"><path d="m432.64 208.86c-0.24686-1.5125-1.1749-8.825-2.0623-16.25-1.9419-16.248-2.8057-19.355-5.9542-21.418-3.532-2.3143-70.892-2.3858-74.186-0.0788-2.919 2.0445-3.9071 5.7177-5.783 21.497-0.88271 7.425-1.8457 14.738-2.1399 16.25l-0.535 2.75h91.109z"/><path d="m470.14 308.61c1.7635-1.7635 2-3.3333 2-13.277 0-13.265-1.0247-15.723-6.5567-15.723h-3.4433v31h3c1.6667 0 3.8889-0.88889 5-2z"/><path d="m338.64 218.11-5.8223 2.9492c-6.8583 3.475-11.001 7.8836-14.576 15.506l-2.6016 5.5449v108l2.3809 4.4688c3.609 6.7709 6.0691 9.7327 10.543 12.693 7.908 5.2332 8.4317 5.2769 59.576 5.0137 42.664-0.21957 47.971-0.42359 52.133-2.0137 6.8922-2.6334 12.333-7.8348 16.01-15.303l3.2285-6.5566-2e-3 -53.152c-1e-3 -52.333-0.034-53.225-2.1641-57.98-3.5294-7.879-7.6955-12.294-14.99-15.885l-6.6738-3.2852h-48.519zm49.781 19.879c13.938 0.13162 27.658 5.6942 38.496 16.432 18.11 17.942 22.327 43.769 10.951 67.053-4.7226 9.6663-15.988 20.799-25.729 25.424-11.059 5.2514-23.368 6.9257-34.5 4.6914-15.94-3.1994-30.651-13.671-38.604-27.479-5.6633-9.8331-7.4032-16.841-7.3281-29.5 0.0594-10.015 0.41542-12.391 2.7617-18.402 5.1528-13.201 11.503-21.336 22.287-28.549 9.852-6.5895 20.824-9.7723 31.664-9.6699z"/><path d="m423.99 422.19c4.6954-2.4281 5.1363-4.4835 8.4357-39.325l0.30776-3.25h-90.176l1.7992 17.75c1.9834 19.567 2.8158 22.658 6.6662 24.75 3.8551 2.0952 68.931 2.1618 72.967 0.0746z"/></g><path d="m388.09 245.64c-5.1175-0.0707-10.208 0.44292-14.023 1.5566-14.671 4.2824-27.811 17.038-32.959 31.994-9.6121 27.926 7.5825 58.667 36.305 64.908 8.3981 1.8248 14.935 1.7321 22.805-0.32227 16.96-4.4274 30.791-18.743 35.387-36.627 6.3595-24.747-8.8664-51.964-33.322-59.564-3.9278-1.2206-9.0739-1.8747-14.191-1.9453zm3.1484 8.5274c6.3484 0.0436 7.7781 0.57319 14.135 3.7148 12.223 6.041 20.388 17.175 22.814 31.107 3.7894 21.76-12.149 43.997-34.086 47.557-7.2938 1.1834-7.7382 1.1828-13.965-0.0332-12.331-2.4081-23.579-11.501-29.27-23.662-3.9217-8.3805-4.9142-20.657-2.377-29.385 2.1929-7.5434 8.6148-17.079 14.342-21.293 8.0405-5.9158 14.421-7.9287 25.355-8 1.1364-7e-3 2.1439-0.0121 3.0508-6e-3z" fill="#3ecac8"/><path d="m389.96 101.61c-38.262 0-63.386 5.5153-95.326 20.926-19.033 9.1833-25.959 14.034-47.885 33.555-22.566 20.09-43.876 52.942-53.865 83.039-7.271 21.907-11.494 51.026-10.293 70.98 2.7048 44.951 17.447 84.049 43.494 115.35 2.7761 3.3358 5.0488 6.2925 5.0488 6.5723 0 0.27975-2.4696 4.5796-5.4863 9.5547-3.0167 4.975-6.4043 10.85-7.5293 13.055l-2.0469 4.0098 2.6289 2.4356 2.627 2.4355-4.334 5.2949c-2.3836 2.9122-4.4218 5.4529-4.5312 5.6465-0.10941 0.1936-1.2284-0.3689-2.4863-1.25-1.2579-0.8811-3.0291-1.6016-3.9356-1.6016-0.94813 0-11.79 12.404-25.527 29.207-50.06 61.23-50.379 61.67-50.379 69.148 0 5.3684 3.1065 10.689 9.6465 16.518 10.557 9.4092 16.224 10.783 25.324 6.1406 3.9932-2.0372 6.3967-4.7942 33.592-38.514 35.854-44.456 42.438-52.861 42.438-54.199 0-0.76015-0.95903-2.6787-2.1309-4.2637l-2.1309-2.8828 3.7637-4.5937 3.7656-4.5938 3.2988 2.5156c1.8146 1.3841 3.891 2.5165 4.6152 2.5156 0.7242-9.3e-4 6.362-4.2823 12.527-9.5137l11.209-9.5117 5.291 3.3789c14.887 9.5092 35.595 17.91 57.08 23.152 17.613 4.298 33.968 5.8257 55.711 5.2051 35.194-1.0046 60.957-7.5535 90-22.879 22.572-11.911 35.503-21.581 54.18-40.516 26.185-26.546 44.719-61.28 51.738-96.961 7.3288-37.255 4.2658-76.646-8.5371-109.8-4.0158-10.398-12.937-26.994-21.803-40.557-27.147-41.528-72.012-72.519-122.08-84.326-15.84-3.7355-25.416-4.6738-47.674-4.6738zm3.6738 11.904c32.279-0.0475 56.644 5.6195 84.793 19.725 22.836 11.443 49.267 33.48 65.213 54.371 6.9044 9.0454 18.17 27.875 23.123 38.646 9.8192 21.355 16.334 50.203 16.361 72.453l8e-3 6.5996-6.6953 2.9004c-3.6826 1.595-6.9451 3.008-7.25 3.1406s-0.62141-5.9424-0.70507-13.5c-0.35779-32.314-9.9374-62.105-29.771-92.596-6.8817-10.579-9.9723-14.39-19.885-24.51-25.075-25.599-57.48-43.404-92.879-51.029-9.8924-2.131-27.918-4.0823-37.848-4.0977-5.3759-8e-3 -5.6888-0.16376-10.941-5.4824-2.974-3.0114-5.5755-5.3073-5.7812-5.1016-0.2057 0.2057 1.9054 2.5054 4.6914 5.1113 2.786 2.606 5.0645 5.0596 5.0645 5.4531 0 0.39356-4.2695 1.016-9.4883 1.3828-18.651 1.311-40.072 6.8583-58.613 15.18-50.106 22.487-86.591 65.383-99.918 117.47-11.717 45.797-4.9129 91.893 19.494 132.04 31.933 52.531 90.604 84.934 153.79 84.934 30.75 0 57.747-6.3404 84.176-19.768 16.553-8.4098 27.509-15.793 40.236-27.115 24.642-21.922 40.509-46.647 50.762-79.104 2.7898-8.8313 6.5556-28.269 6.5762-33.939 0.0124-3.4375 0.27222-3.6931 6.75-6.6602 5.4849-2.5123 6.802-2.8093 7.0898-1.5938 0.19448 0.82117-0.16311 6.4849-0.79492 12.586-4.3392 41.902-18.05 71.879-48.492 106.02-25.257 28.322-64.72 51.157-101.07 58.48-19.237 3.8763-41.573 5.3876-59.998 4.0606h-2e-3c-47.971-3.4561-89.412-22.715-124.57-57.889-18.668-18.678-34.041-43.534-42.801-69.199-7.8126-22.89-10.764-43.55-9.7774-68.449 2.0662-52.137 25.891-99.772 68.615-137.18 19.112-16.736 47.57-31.39 72.299-37.232 19.748-4.6657 33.127-6.0686 58.232-6.1055zm-4 19.619c25.781 0.0272 33.91 1.2275 54.357 8.0273 24.304 8.0823 44.602 19.585 63.361 35.906 23.849 20.749 42.933 52.52 51.746 86.146 3.931 14.999 6.6348 46.616 4.2695 49.924-0.40408 0.56518-2.6691 1.881-5.0332 2.9238s-4.5246 2.2622-4.8008 2.709c-0.27615 0.44683 1.5825-0.0815 4.1309-1.1738 2.5483-1.0923 4.8792-1.9863 5.1797-1.9863 0.96404 0-0.77493 12.194-3.209 22.5-7.5764 32.078-21.139 56.346-44.426 79.5-15.694 15.604-27.401 24.265-45.297 33.512l-12.719 6.5723-1.5312-3.6641c-0.84198-2.0151-1.5293-4.032-1.5293-4.4824 0-0.45038-0.4622-1.1051-1.0254-1.4531s-0.1432 1.6857 0.93359 4.5195l1.959 5.1524-3.3633 1.4062c-4.9175 2.0547-19.205 6.0917-27.658 7.8144-16.862 3.4365-43.922 4.5712-61.172 2.5664-31.211-3.6274-61.262-15.806-85.41-34.615l-8.2363-6.4141 2.3066-3.707c3.5502-5.7077 3.8176-6.207 3.3164-6.207-0.25695 0-1.7456 2.024-3.3086 4.498s-3.1043 4.499-3.4238 4.5c-1.0064 3e-3 -14.286-14.196-20.105-21.498-8.1275-10.198-14.288-20.146-20.32-32.814-11.25-23.625-15.65-42.767-15.787-68.686-0.10432-19.656 0.36132-22.144 4.5566-24.361 2.9368-1.5525 2.037-1.569-1.7578-0.0332-1.8016 0.72913-1.5506-0.96668 2.5547-17.156 15.032-59.282 60.236-105.37 121.08-123.44 18.505-5.4974 26.357-6.5077 50.359-6.4824z" fill="#3ecac8"/></g><g fill="#5b29c7"><path d="m1084 154.12c-0.449-7.0511-2.4654-10.852-7.1669-13.511-2.3598-1.3343-2.9511-1.3332-5.3528 0.0102-3.8929 2.1776-6.2046 6.7835-6.9411 13.83l-0.6439 6.16h20.518z"/><path d="m1129.9 349.71c0.173-3.6698-0.1598-6.8598-0.7802-7.4802-1.3968-1.3968-105.93-1.7077-107.77-0.32054-1.3168 0.99462-1.8007 12.815-0.5748 14.041 0.3714 0.37136 25.009 0.55886 54.75 0.41667l54.075-0.25853z"/><path d="m1034.6 363.61-2.2227 17.25c-14.843 115.17-17.316 134.92-16.996 135.69 0.1628 0.39442 5.4719-0.80712 11.797-2.6699 15.579-4.5884 20.496-4.5682 34.977 0.14844 13.221 4.3063 15.135 4.265 28.232-0.625 12.236-4.5681 18.98-4.4022 33.791 0.83789 6.325 2.2378 11.638 3.723 11.807 3.2988 0.1687-0.42411-4.2243-34.22-9.7618-75.102-5.5374-40.882-10.297-75.343-10.576-76.58l-0.5078-2.25h-40.27zm41.199 26.07c1.9518-0.0478 3.9382 0.56053 5.5176 1.8379 2.2629 1.8302 2.3729 2.5351 2.6816 17l0.3223 15.092h-16.143v-14.826c0-14.204 0.097-14.917 2.3145-17 1.4383-1.3512 3.3548-2.0558 5.3066-2.1035z"/><path d="m1103.6 575.5c34.131-3.5153 66.798-14.414 96.5-32.197 70.187-42.021 112.83-112.48 117.92-194.85 0.4304-6.962 0.568-17.112 0.3059-22.556l-0.4766-9.8975-14.513-2.956-0.5459 24.034c-0.587 25.841-1.752 34.638-7.4966 56.606-16.918 64.694-64.033 120.17-125.32 147.56-31.892 14.253-67.35 21.342-100.38 20.068-57.375-2.2138-111.16-25.432-151.01-65.195-37.141-37.053-59.121-81.805-66.063-134.51-3.0943-23.49-0.73335-58.225 5.6076-82.5 17.435-66.746 63.021-121.2 124.01-148.13 22.739-10.041 48.658-16.966 72.855-19.465 16.051-1.6581 46.336-0.66491 61.608 2.0204 37.996 6.6813 71.398 21.613 102 45.598 7.9987 6.269 27.542 25.677 35.069 34.827l3.9918 4.8521 15.298-2.5705-6.1455-9.0668c-11.75-17.336-39.966-43.322-62.26-57.341-7.385-4.6437-34.422-17.437-45.772-21.658-11.588-4.3098-29.655-8.7498-45.681-11.226-14.177-2.1906-54.603-2.5174-68.5-0.55375-58.978 8.3336-111.04 35.813-147.22 77.712-38.258 44.299-57.784 90.821-61.175 145.75-4.8418 78.439 28.569 154.69 88.897 202.87 51.509 41.141 113.48 59.461 178.5 52.765z"/><path d="m1118.4 657.6c5.4547-4.2907 5.9353-13.538 0.9448-18.18-7.7386-7.1981-19.238-2.478-19.238 7.8966 0 8.0697 3.7773 12.242 11.115 12.277 3.1387 0.0151 5.4349-0.6226 7.1776-1.9934z"/><path d="m986.13 643.42v112.35l25.25-0.39649c20.013-0.31484 26.494-0.75481 31.25-2.1211 20.757-5.9636 32.657-17.762 38.139-37.816 2.1616-7.9087 2.4281-27.003 0.4864-34.816-3.2563-13.104-12.659-24.649-24.422-29.982-12.603-5.7146-16.099-6.2434-44.453-6.7461zm20 17.195h10.816c5.9491 0 13.47 0.49063 16.711 1.0898 11.812 2.1836 20.615 8.7199 25.354 18.824 2.3763 5.0671 2.6182 6.7016 2.5977 17.586-0.029 15.649-2.0756 21.291-10.891 30.043-8.2129 8.1543-12.762 9.663-30.838 10.223l-13.75 0.42578v-39.096z"/><path d="m1121.1 714.61v-41.5h-19v83h19z"/><path d="m895.08 643.34c-1.8224 6e-3 -3.2691 0.0296-4.1973 0.0703l-6.75 0.29687v112.7l26.406-0.33398c15.894-0.20129 28.133-0.79896 30.744-1.502 9.5365-2.5679 17.329-8.1708 20.846-14.99 3.9202-7.6015 4.4132-19.632 1.1524-28.107-2.2653-5.8875-11.82-13.861-16.609-13.861-2.5627 0-1.7309-1.6778 1.4941-3.0137 4.3544-1.8036 10.491-9.2217 11.955-14.449 1.6105-5.752 0.91279-14.935-1.5195-20.004-2.8342-5.906-8.5134-11.019-15.105-13.6-5.182-2.0288-8.1915-2.3627-25.863-2.8652-8.25-0.23459-17.085-0.36315-22.553-0.34375zm8.9043 17.275h11.605c12.652 0 16.425 0.98895 20.459 5.3633 3.1775 3.4458 4.0352 11.893 1.6719 16.463-2.9242 5.6547-5.5985 6.62-19.887 7.1738-7.0948 0.275-12.998 0.275-13.119 0-0.12087-0.275-0.33419-6.9125-0.47461-14.75zm0.82031 46.5h13.914c15.75 0 19.108 1.1017 22.842 7.4941 2.7338 4.6808 2.7216 12.989-0.0254 16.668-4.7088 6.3069-6.2711 6.8105-22.223 7.1562l-14.68 0.31836 0.0859-15.818z"/><path d="m781.13 643.11v56.5l2e-3 56.5h20v-42.592l6.7227 0.29492 6.7226 0.29688 14.229 20.814 14.229 20.816 12.049 0.18359c6.6266 0.10149 12.049 0.0968 12.049-0.0117-2.6e-4 -0.29002-23.673-33.922-28.162-40.01-2.1117-2.864-3.8379-5.3794-3.8379-5.5898s1.7039-0.94528 3.7871-1.6328c14.182-4.6805 22.929-20.676 20.285-37.092-1.8356-11.398-7.5949-19.183-17.709-23.938-7.2306-3.3988-12.724-4.0334-37.115-4.293zm20.002 17.303 13.25 0.34961c11.514 0.3025 13.709 0.63216 16.75 2.5274 11.529 7.1841 9.8164 26.737-2.8027 32.01-1.8874 0.78859-8.6768 1.6848-15.295 2.0176l-11.902 0.59766v-18.75z"/><path d="m1333.6 671.06c-6.8786 0.0353-13.289 1.6734-20.172 5.0684-14.753 7.2764-21.016 20.247-20.062 41.559 0.5559 12.428 3.0368 19.67 9.0918 26.549 8.7205 9.907 18.154 13.547 33.848 13.062 9.5981-0.29624 11.311-0.64541 17.105-3.498 7.8176-3.8486 14.883-11.098 18.484-18.965 2.1631-4.7249 2.694-7.5926 3.0645-16.584 0.5263-12.773-0.7384-19.697-5.1035-27.965-5.5205-10.456-15.436-16.82-29.186-18.732-2.4314-0.33817-4.7774-0.50591-7.0703-0.49414zm0.7578 15.574c13.897 0.0578 21.171 9.1543 21.174 26.479 0 11.219-2.2068 18.316-7.2851 23.395-5.6954 5.6954-13.673 7.4197-21.469 4.6406-9.0706-3.2336-13.902-12.408-13.975-26.535-0.055-10.744 1.4785-16.042 6.1407-21.209 4.5476-5.0398 8.5494-6.7981 15.414-6.7695z"/><path d="m1267.1 756.53c5.5122-1.267 16-5.878 16-7.0344 0-0.46447-1.4003-3.6843-3.1119-7.1551l-3.1119-6.3106-5.1203 2.534c-5.917 2.9283-17.314 3.9775-22.961 2.1137-4.6428-1.5323-10.5-7.382-13.011-12.994-4.264-9.5298-1.9766-25.838 4.6154-32.905 5.907-6.3327 18.108-8.819 27.814-5.6681 2.9629 0.96185 5.8146 2.1435 6.3371 2.6259 1.3016 1.2017 2.55 1.1015 2.55-0.20465 0-0.59496 1.5457-3.719 3.4349-6.9424l3.4348-5.8606-4.4408-2.1497c-18.08-8.7525-40.923-5.5242-54.092 7.6449-2.4684 2.4684-5.9069 7.5034-7.641 11.189-2.7846 5.918-3.1968 7.9352-3.5288 17.269-0.8598 24.173 8.545 38.62 28.333 43.523 6.2047 1.5374 18.517 1.7011 24.5 0.32574z"/><path d="m1181.1 756.05c7.7119-2.1644 14.275-7.1733 17.132-13.075 3.1655-6.539 3.2512-16.19 0.1954-21.987-4.0447-7.6735-6.0711-8.76-29.449-15.789-12.109-3.641-15.414-8.0097-10.645-14.073 4.6862-5.9575 16.08-7.252 28.019-3.1831l6.6864 2.2789 2.5055-7.0294c1.3781-3.8662 2.3239-7.2111 2.1019-7.4332-1.4618-1.4618-17.351-4.1325-24.625-4.1391-16.384-0.0148-28.453 6.1352-32.419 16.519-2.4189 6.3338-1.649 16.774 1.597 21.657 4.3088 6.481 8.6248 8.5868 29.364 14.327 6.5004 1.7991 11.602 5.9824 11.602 9.5135 0 3.7331-5.9668 8.6994-11.438 9.5198-5.7279 0.85894-18.167-1.3391-24.273-4.2889l-4.118-1.9896-2.2219 6.1178c-1.2221 3.3648-2.4314 6.674-2.6875 7.3539-1.0343 2.7465 15.983 7.0899 28.172 7.1903 5.2835 0.0435 11.209-0.5647 14.5-1.4884z"/></g><path d="m693.14 440.11v-327.5h-6v655h6z" fill="#3ecbcb"/><g transform="matrix(.25624 0 0 .25624 -36.045 524.55)"><g id="guides">
 <!-- baseline --><line class="guide" x1="267.55" x2="920" y1="160" y2="160" fill="none" opacity=".12" stroke="#00e6cc" stroke-width="7.0506"/>
 <!-- top -->
 <!-- crossbar height --></g><g fill="none" stroke="#00e6cc" stroke-linecap="round" stroke-linejoin="round" stroke-width="40"><circle class="stroke" cx="500" cy="180" r="60"/><line class="stroke" x1="500" x2="500" y1="60" y2="120"/><line class="stroke" x1="500" x2="300" y1="240" y2="860"/><line class="stroke" x1="500" x2="700" y1="240" y2="860"/><line class="stroke" x1="360" x2="640" y1="600" y2="600"/></g></g><g transform="matrix(.50467 0 0 .50467 88.502 554.89)"><g stroke="#00e6cc"><line class="guide" x1="-123.8" x2="1148.9" y1="120" y2="120" opacity=".18" stroke-width="5.0451"/><line class="guide" x1="-147.6" x2="1173.8" y1="230" y2="230" opacity=".18" stroke-width="5.1408"/><line class="guide" x1="-153.55" x2="1175.1" y1="380" y2="380" opacity=".18" stroke-width="5.1548"/><line class="guide" x1="-119.5" x2="1150.8" y1="430" y2="430" opacity=".18" stroke-width="5.0404"/></g><text class="text" x="120" y="380" fill="#00e6cc" font-family="Montserrat, Inter, Helvetica, Arial, sans-serif" font-size="320px" font-weight="600" letter-spacing="6">ctiTect</text><g stroke="#00e6cc" stroke-linecap="square" stroke-width="10"><line class="ticks" x1="830" x2="900" y1="165" y2="165" opacity=".6"/><line class="ticks" x1="865" x2="865" y1="165" y2="205" opacity=".6"/></g></g></g></svg>
